<svg width="100" height="100" viewBox="0 0 100 100" fill="none" xmlns="http://www.w3.org/2000/svg">
<circle cx="50" cy="50" r="50" fill="#D9D9D9"/>
<path d="M31.4102 82.7148V85H24.252V82.7148H31.4102ZM25.1992 70.7812V85H22.2695V70.7812H25.1992ZM44.125 77.5586V78.2324C44.125 79.3132 43.9785 80.2832 43.6855 81.1426C43.3926 82.002 42.9792 82.7344 42.4453 83.3398C41.9115 83.9388 41.2734 84.3978 40.5312 84.7168C39.7956 85.0358 38.9785 85.1953 38.0801 85.1953C37.1882 85.1953 36.3711 85.0358 35.6289 84.7168C34.8932 84.3978 34.2552 83.9388 33.7148 83.3398C33.1745 82.7344 32.7546 82.002 32.4551 81.1426C32.1621 80.2832 32.0156 79.3132 32.0156 78.2324V77.5586C32.0156 76.4714 32.1621 75.5013 32.4551 74.6484C32.748 73.7891 33.1615 73.0566 33.6953 72.4512C34.2357 71.8457 34.8737 71.3835 35.6094 71.0645C36.3516 70.7454 37.1686 70.5859 38.0605 70.5859C38.959 70.5859 39.776 70.7454 40.5117 71.0645C41.2539 71.3835 41.8919 71.8457 42.4258 72.4512C42.9661 73.0566 43.3828 73.7891 43.6758 74.6484C43.9753 75.5013 44.125 76.4714 44.125 77.5586ZM41.166 78.2324V77.5391C41.166 76.7839 41.0977 76.1198 40.9609 75.5469C40.8242 74.974 40.6224 74.4922 40.3555 74.1016C40.0885 73.7109 39.763 73.418 39.3789 73.2227C38.9948 73.0208 38.5553 72.9199 38.0605 72.9199C37.5658 72.9199 37.1263 73.0208 36.7422 73.2227C36.3646 73.418 36.0423 73.7109 35.7754 74.1016C35.515 74.4922 35.3164 74.974 35.1797 75.5469C35.043 76.1198 34.9746 76.7839 34.9746 77.5391V78.2324C34.9746 78.9811 35.043 79.6452 35.1797 80.2246C35.3164 80.7975 35.5182 81.2826 35.7852 81.6797C36.0521 82.0703 36.3776 82.3665 36.7617 82.5684C37.1458 82.7702 37.5853 82.8711 38.0801 82.8711C38.5749 82.8711 39.0143 82.7702 39.3984 82.5684C39.7826 82.3665 40.1048 82.0703 40.3652 81.6797C40.6257 81.2826 40.8242 80.7975 40.9609 80.2246C41.0977 79.6452 41.166 78.9811 41.166 78.2324ZM57.5039 77.5684V83.2031C57.2826 83.4701 56.9408 83.7598 56.4785 84.0723C56.0163 84.3783 55.4206 84.6419 54.6914 84.8633C53.9622 85.0846 53.0801 85.1953 52.0449 85.1953C51.127 85.1953 50.2904 85.0456 49.5352 84.7461C48.7799 84.4401 48.1289 83.9941 47.582 83.4082C47.0417 82.8223 46.625 82.1061 46.332 81.2598C46.0391 80.4069 45.8926 79.4336 45.8926 78.3398V77.4512C45.8926 76.3574 46.0326 75.3841 46.3125 74.5312C46.599 73.6784 47.0059 72.959 47.5332 72.373C48.0605 71.7871 48.6888 71.3411 49.418 71.0352C50.1471 70.7292 50.9577 70.5762 51.8496 70.5762C53.0866 70.5762 54.1022 70.778 54.8965 71.1816C55.6908 71.5788 56.2962 72.1322 56.7129 72.8418C57.1361 73.5449 57.3965 74.3522 57.4941 75.2637H54.6523C54.5807 74.7819 54.444 74.362 54.2422 74.0039C54.0404 73.6458 53.7507 73.3659 53.373 73.1641C53.002 72.9622 52.5202 72.8613 51.9277 72.8613C51.4395 72.8613 51.0033 72.9622 50.6191 73.1641C50.2415 73.3594 49.9225 73.6491 49.6621 74.0332C49.4017 74.4173 49.2031 74.8926 49.0664 75.459C48.9297 76.0254 48.8613 76.6829 48.8613 77.4316V78.3398C48.8613 79.082 48.9329 79.7396 49.0762 80.3125C49.2194 80.8789 49.431 81.3574 49.7109 81.748C49.9974 82.1322 50.349 82.4219 50.7656 82.6172C51.1823 82.8125 51.6673 82.9102 52.2207 82.9102C52.6829 82.9102 53.0671 82.8711 53.373 82.793C53.6855 82.7148 53.9362 82.6204 54.125 82.5098C54.3203 82.3926 54.4701 82.2819 54.5742 82.1777V79.6582H51.8984V77.5684H57.5039ZM62.9824 70.7812V85H60.0625V70.7812H62.9824ZM77.2988 70.7812V85H74.3691L68.6562 75.4688V85H65.7266V70.7812H68.6562L74.3789 80.3223V70.7812H77.2988Z" fill="black"/>
<path d="M35.4167 22.5385C35.4167 26.3943 36.9531 30.0922 39.688 32.8187C42.4229 35.5452 46.1323 37.0769 50 37.0769C53.8677 37.0769 57.5771 35.5452 60.312 32.8187C63.0469 30.0922 64.5833 26.3943 64.5833 22.5385C64.5833 18.6826 63.0469 14.9847 60.312 12.2582C57.5771 9.53173 53.8677 8 50 8C46.1323 8 42.4229 9.53173 39.688 12.2582C36.9531 14.9847 35.4167 18.6826 35.4167 22.5385ZM70.8333 62H27.0833C26.5308 62 26.0009 61.7812 25.6102 61.3917C25.2195 61.0022 25 60.4739 25 59.9231V53.6923C25 50.9381 26.0975 48.2968 28.051 46.3493C30.0045 44.4018 32.654 43.3077 35.4167 43.3077H64.5833C67.346 43.3077 69.9955 44.4018 71.949 46.3493C73.9025 48.2968 75 50.9381 75 53.6923V59.9231C75 60.4739 74.7805 61.0022 74.3898 61.3917C73.9991 61.7812 73.4692 62 72.9167 62H70.8333Z" fill="black"/>
</svg>
