<svg width="228" height="48" viewBox="0 0 228 48" fill="none" xmlns="http://www.w3.org/2000/svg">
<rect x="38" width="190" height="48" rx="8" fill="#A66226"/>
<path d="M72.6348 31H69.5391L69.5586 28.7148H72.6348C73.403 28.7148 74.0508 28.5423 74.5781 28.1973C75.1055 27.8457 75.5026 27.3346 75.7695 26.6641C76.043 25.9935 76.1797 25.1829 76.1797 24.2324V23.5391C76.1797 22.8099 76.1016 22.1686 75.9453 21.6152C75.7956 21.0618 75.571 20.5964 75.2715 20.2188C74.972 19.8411 74.6042 19.5579 74.168 19.3691C73.7318 19.1738 73.2305 19.0762 72.6641 19.0762H69.4805V16.7812H72.6641C73.6146 16.7812 74.4837 16.944 75.2715 17.2695C76.0658 17.5885 76.7526 18.0475 77.332 18.6465C77.9115 19.2454 78.3574 19.9616 78.6699 20.7949C78.9889 21.6217 79.1484 22.543 79.1484 23.5586V24.2324C79.1484 25.2415 78.9889 26.1628 78.6699 26.9961C78.3574 27.8294 77.9115 28.5456 77.332 29.1445C76.7591 29.737 76.0723 30.196 75.2715 30.5215C74.4772 30.8405 73.5983 31 72.6348 31ZM71.1992 16.7812V31H68.2695V16.7812H71.1992ZM86.8047 28.6172V23.9102C86.8047 23.5716 86.7493 23.2819 86.6387 23.041C86.528 22.7936 86.3555 22.6016 86.1211 22.4648C85.8932 22.3281 85.597 22.2598 85.2324 22.2598C84.9199 22.2598 84.6497 22.3151 84.4219 22.4258C84.194 22.5299 84.0182 22.6829 83.8945 22.8848C83.7708 23.0801 83.709 23.3112 83.709 23.5781H80.8965C80.8965 23.1289 81.0007 22.7025 81.209 22.2988C81.4173 21.8952 81.7201 21.5404 82.1172 21.2344C82.5143 20.9219 82.9863 20.6777 83.5332 20.502C84.0866 20.3262 84.7051 20.2383 85.3887 20.2383C86.209 20.2383 86.9382 20.375 87.5762 20.6484C88.2142 20.9219 88.7155 21.332 89.0801 21.8789C89.4512 22.4258 89.6367 23.1094 89.6367 23.9297V28.4512C89.6367 29.0306 89.6725 29.5059 89.7441 29.877C89.8158 30.2415 89.9199 30.5605 90.0566 30.834V31H87.2148C87.0781 30.7135 86.974 30.3555 86.9023 29.9258C86.8372 29.4896 86.8047 29.0534 86.8047 28.6172ZM87.1758 24.5645L87.1953 26.1562H85.623C85.252 26.1562 84.9297 26.1986 84.6562 26.2832C84.3828 26.3678 84.1582 26.4883 83.9824 26.6445C83.8066 26.7943 83.6764 26.9701 83.5918 27.1719C83.5137 27.3737 83.4746 27.5951 83.4746 27.8359C83.4746 28.0768 83.5299 28.2949 83.6406 28.4902C83.7513 28.679 83.9108 28.8288 84.1191 28.9395C84.3275 29.0436 84.5716 29.0957 84.8516 29.0957C85.2747 29.0957 85.6426 29.0111 85.9551 28.8418C86.2676 28.6725 86.5085 28.4642 86.6777 28.2168C86.8535 27.9694 86.9447 27.735 86.9512 27.5137L87.6934 28.7051C87.5892 28.972 87.446 29.2487 87.2637 29.5352C87.0879 29.8216 86.8633 30.0918 86.5898 30.3457C86.3164 30.5931 85.9876 30.7982 85.6035 30.9609C85.2194 31.1172 84.7637 31.1953 84.2363 31.1953C83.5658 31.1953 82.957 31.0618 82.4102 30.7949C81.8698 30.5215 81.4401 30.1471 81.1211 29.6719C80.8086 29.1901 80.6523 28.6432 80.6523 28.0312C80.6523 27.4779 80.7565 26.9863 80.9648 26.5566C81.1732 26.127 81.4792 25.7656 81.8828 25.4727C82.293 25.1732 82.804 24.9486 83.416 24.7988C84.028 24.6426 84.7376 24.5645 85.5449 24.5645H87.1758ZM97.5176 28.0801C97.5176 27.8783 97.459 27.696 97.3418 27.5332C97.2246 27.3704 97.0065 27.2207 96.6875 27.084C96.375 26.9408 95.9225 26.8105 95.3301 26.6934C94.7962 26.5762 94.2982 26.4297 93.8359 26.2539C93.3802 26.0716 92.9831 25.8535 92.6445 25.5996C92.3125 25.3457 92.0521 25.0462 91.8633 24.7012C91.6745 24.3496 91.5801 23.9492 91.5801 23.5C91.5801 23.0573 91.6745 22.6406 91.8633 22.25C92.0586 21.8594 92.3353 21.5143 92.6934 21.2148C93.0579 20.9089 93.5007 20.6712 94.0215 20.502C94.5488 20.3262 95.1413 20.2383 95.7988 20.2383C96.7168 20.2383 97.5046 20.3848 98.1621 20.6777C98.8262 20.9707 99.334 21.3743 99.6855 21.8887C100.044 22.3965 100.223 22.9759 100.223 23.627H97.4102C97.4102 23.3535 97.3516 23.1094 97.2344 22.8945C97.1237 22.6732 96.9479 22.5007 96.707 22.377C96.4727 22.2467 96.1667 22.1816 95.7891 22.1816C95.4766 22.1816 95.2064 22.237 94.9785 22.3477C94.7507 22.4518 94.5749 22.5951 94.4512 22.7773C94.334 22.9531 94.2754 23.1484 94.2754 23.3633C94.2754 23.526 94.3079 23.6725 94.373 23.8027C94.4447 23.9264 94.5586 24.0404 94.7148 24.1445C94.8711 24.2487 95.0729 24.3464 95.3203 24.4375C95.5742 24.5221 95.8867 24.6003 96.2578 24.6719C97.0195 24.8281 97.6999 25.0332 98.2988 25.2871C98.8978 25.5345 99.373 25.873 99.7246 26.3027C100.076 26.7259 100.252 27.2826 100.252 27.9727C100.252 28.4414 100.148 28.8711 99.9395 29.2617C99.7311 29.6523 99.4316 29.9941 99.041 30.2871C98.6504 30.5736 98.1816 30.7982 97.6348 30.9609C97.0944 31.1172 96.4857 31.1953 95.8086 31.1953C94.8255 31.1953 93.9922 31.0195 93.3086 30.668C92.6315 30.3164 92.1172 29.8704 91.7656 29.3301C91.4206 28.7832 91.248 28.2233 91.248 27.6504H93.9141C93.9271 28.0345 94.0247 28.3438 94.207 28.5781C94.3958 28.8125 94.6335 28.9818 94.9199 29.0859C95.2129 29.1901 95.5286 29.2422 95.8672 29.2422C96.2318 29.2422 96.5345 29.1934 96.7754 29.0957C97.0163 28.9915 97.1986 28.8548 97.3223 28.6855C97.4525 28.5098 97.5176 28.3079 97.5176 28.0801ZM104.822 16V31H102.01V16H104.822ZM104.422 25.3457H103.65C103.657 24.61 103.755 23.9329 103.943 23.3145C104.132 22.6895 104.402 22.1491 104.754 21.6934C105.105 21.2311 105.525 20.873 106.014 20.6191C106.508 20.3652 107.055 20.2383 107.654 20.2383C108.175 20.2383 108.647 20.3132 109.07 20.4629C109.5 20.6061 109.868 20.8405 110.174 21.166C110.486 21.485 110.727 21.9049 110.896 22.4258C111.066 22.9466 111.15 23.5781 111.15 24.3203V31H108.318V24.3008C108.318 23.832 108.25 23.4642 108.113 23.1973C107.983 22.9238 107.791 22.7318 107.537 22.6211C107.29 22.5039 106.984 22.4453 106.619 22.4453C106.215 22.4453 105.87 22.5202 105.584 22.6699C105.304 22.8197 105.079 23.028 104.91 23.2949C104.741 23.5553 104.617 23.8613 104.539 24.2129C104.461 24.5645 104.422 24.9421 104.422 25.3457ZM113.289 16H116.102V28.5781L115.818 31H113.289V16ZM122.791 25.6094V25.8145C122.791 26.6022 122.706 27.3249 122.537 27.9824C122.374 28.64 122.12 29.2096 121.775 29.6914C121.43 30.1667 121.001 30.5378 120.486 30.8047C119.979 31.0651 119.38 31.1953 118.689 31.1953C118.045 31.1953 117.485 31.0651 117.01 30.8047C116.541 30.5443 116.147 30.1764 115.828 29.7012C115.509 29.2259 115.252 28.6693 115.057 28.0312C114.861 27.3932 114.715 26.6966 114.617 25.9414V25.4922C114.715 24.737 114.861 24.0404 115.057 23.4023C115.252 22.7643 115.509 22.2077 115.828 21.7324C116.147 21.2572 116.541 20.8893 117.01 20.6289C117.479 20.3685 118.032 20.2383 118.67 20.2383C119.367 20.2383 119.972 20.3717 120.486 20.6387C121.007 20.8991 121.437 21.2702 121.775 21.752C122.12 22.2272 122.374 22.7936 122.537 23.4512C122.706 24.1022 122.791 24.8216 122.791 25.6094ZM119.979 25.8145V25.6094C119.979 25.1797 119.946 24.776 119.881 24.3984C119.822 24.0143 119.718 23.679 119.568 23.3926C119.419 23.0996 119.214 22.8685 118.953 22.6992C118.699 22.5299 118.37 22.4453 117.967 22.4453C117.583 22.4453 117.257 22.5104 116.99 22.6406C116.723 22.7708 116.502 22.9531 116.326 23.1875C116.157 23.4219 116.03 23.7018 115.945 24.0273C115.861 24.3464 115.809 24.6979 115.789 25.082V26.3613C115.809 26.8757 115.893 27.3314 116.043 27.7285C116.199 28.1191 116.434 28.4284 116.746 28.6562C117.065 28.8776 117.479 28.9883 117.986 28.9883C118.383 28.9883 118.712 28.9102 118.973 28.7539C119.233 28.5977 119.435 28.3763 119.578 28.0898C119.728 27.8034 119.832 27.4681 119.891 27.084C119.949 26.6934 119.979 26.2702 119.979 25.8145ZM124.09 25.8242V25.6191C124.09 24.8444 124.201 24.1315 124.422 23.4805C124.643 22.8229 124.965 22.2533 125.389 21.7715C125.812 21.2897 126.333 20.9154 126.951 20.6484C127.57 20.375 128.279 20.2383 129.08 20.2383C129.881 20.2383 130.594 20.375 131.219 20.6484C131.844 20.9154 132.368 21.2897 132.791 21.7715C133.221 22.2533 133.546 22.8229 133.768 23.4805C133.989 24.1315 134.1 24.8444 134.1 25.6191V25.8242C134.1 26.5924 133.989 27.3053 133.768 27.9629C133.546 28.6139 133.221 29.1836 132.791 29.6719C132.368 30.1536 131.847 30.528 131.229 30.7949C130.61 31.0618 129.9 31.1953 129.1 31.1953C128.299 31.1953 127.586 31.0618 126.961 30.7949C126.342 30.528 125.818 30.1536 125.389 29.6719C124.965 29.1836 124.643 28.6139 124.422 27.9629C124.201 27.3053 124.09 26.5924 124.09 25.8242ZM126.902 25.6191V25.8242C126.902 26.2669 126.941 26.6803 127.02 27.0645C127.098 27.4486 127.221 27.7871 127.391 28.0801C127.566 28.3665 127.794 28.5911 128.074 28.7539C128.354 28.9167 128.696 28.998 129.1 28.998C129.49 28.998 129.826 28.9167 130.105 28.7539C130.385 28.5911 130.61 28.3665 130.779 28.0801C130.949 27.7871 131.072 27.4486 131.15 27.0645C131.235 26.6803 131.277 26.2669 131.277 25.8242V25.6191C131.277 25.1895 131.235 24.7858 131.15 24.4082C131.072 24.0241 130.945 23.6855 130.77 23.3926C130.6 23.0931 130.376 22.8587 130.096 22.6895C129.816 22.5202 129.477 22.4355 129.08 22.4355C128.683 22.4355 128.344 22.5202 128.064 22.6895C127.791 22.8587 127.566 23.0931 127.391 23.3926C127.221 23.6855 127.098 24.0241 127.02 24.4082C126.941 24.7858 126.902 25.1895 126.902 25.6191ZM141.531 28.6172V23.9102C141.531 23.5716 141.476 23.2819 141.365 23.041C141.255 22.7936 141.082 22.6016 140.848 22.4648C140.62 22.3281 140.324 22.2598 139.959 22.2598C139.646 22.2598 139.376 22.3151 139.148 22.4258C138.921 22.5299 138.745 22.6829 138.621 22.8848C138.497 23.0801 138.436 23.3112 138.436 23.5781H135.623C135.623 23.1289 135.727 22.7025 135.936 22.2988C136.144 21.8952 136.447 21.5404 136.844 21.2344C137.241 20.9219 137.713 20.6777 138.26 20.502C138.813 20.3262 139.432 20.2383 140.115 20.2383C140.936 20.2383 141.665 20.375 142.303 20.6484C142.941 20.9219 143.442 21.332 143.807 21.8789C144.178 22.4258 144.363 23.1094 144.363 23.9297V28.4512C144.363 29.0306 144.399 29.5059 144.471 29.877C144.542 30.2415 144.646 30.5605 144.783 30.834V31H141.941C141.805 30.7135 141.701 30.3555 141.629 29.9258C141.564 29.4896 141.531 29.0534 141.531 28.6172ZM141.902 24.5645L141.922 26.1562H140.35C139.979 26.1562 139.656 26.1986 139.383 26.2832C139.109 26.3678 138.885 26.4883 138.709 26.6445C138.533 26.7943 138.403 26.9701 138.318 27.1719C138.24 27.3737 138.201 27.5951 138.201 27.8359C138.201 28.0768 138.257 28.2949 138.367 28.4902C138.478 28.679 138.637 28.8288 138.846 28.9395C139.054 29.0436 139.298 29.0957 139.578 29.0957C140.001 29.0957 140.369 29.0111 140.682 28.8418C140.994 28.6725 141.235 28.4642 141.404 28.2168C141.58 27.9694 141.671 27.735 141.678 27.5137L142.42 28.7051C142.316 28.972 142.173 29.2487 141.99 29.5352C141.814 29.8216 141.59 30.0918 141.316 30.3457C141.043 30.5931 140.714 30.7982 140.33 30.9609C139.946 31.1172 139.49 31.1953 138.963 31.1953C138.292 31.1953 137.684 31.0618 137.137 30.7949C136.596 30.5215 136.167 30.1471 135.848 29.6719C135.535 29.1901 135.379 28.6432 135.379 28.0312C135.379 27.4779 135.483 26.9863 135.691 26.5566C135.9 26.127 136.206 25.7656 136.609 25.4727C137.02 25.1732 137.531 24.9486 138.143 24.7988C138.755 24.6426 139.464 24.5645 140.271 24.5645H141.902ZM149.344 22.7383V31H146.531V20.4336H149.178L149.344 22.7383ZM152.527 20.3652L152.479 22.9727C152.342 22.9531 152.176 22.9368 151.98 22.9238C151.792 22.9043 151.619 22.8945 151.463 22.8945C151.066 22.8945 150.721 22.9466 150.428 23.0508C150.141 23.1484 149.9 23.2949 149.705 23.4902C149.516 23.6855 149.373 23.9232 149.275 24.2031C149.184 24.4831 149.132 24.8021 149.119 25.1602L148.553 24.9844C148.553 24.3008 148.621 23.6725 148.758 23.0996C148.895 22.5202 149.093 22.0156 149.354 21.5859C149.62 21.1562 149.946 20.8242 150.33 20.5898C150.714 20.3555 151.154 20.2383 151.648 20.2383C151.805 20.2383 151.964 20.2513 152.127 20.2773C152.29 20.2969 152.423 20.3262 152.527 20.3652ZM159.9 28.6953V16H162.732V31H160.184L159.9 28.6953ZM153.221 25.8438V25.6387C153.221 24.8314 153.312 24.099 153.494 23.4414C153.676 22.7773 153.943 22.2077 154.295 21.7324C154.646 21.2572 155.079 20.8893 155.594 20.6289C156.108 20.3685 156.694 20.2383 157.352 20.2383C157.97 20.2383 158.51 20.3685 158.973 20.6289C159.441 20.8893 159.839 21.2604 160.164 21.7422C160.496 22.2174 160.763 22.7806 160.965 23.4316C161.167 24.0762 161.313 24.7826 161.404 25.5508V26C161.313 26.7357 161.167 27.4193 160.965 28.0508C160.763 28.6823 160.496 29.2357 160.164 29.7109C159.839 30.1797 159.441 30.5443 158.973 30.8047C158.504 31.0651 157.957 31.1953 157.332 31.1953C156.674 31.1953 156.089 31.0618 155.574 30.7949C155.066 30.528 154.637 30.1536 154.285 29.6719C153.94 29.1901 153.676 28.6237 153.494 27.9727C153.312 27.3216 153.221 26.612 153.221 25.8438ZM156.033 25.6387V25.8438C156.033 26.2799 156.066 26.6868 156.131 27.0645C156.202 27.4421 156.316 27.7773 156.473 28.0703C156.635 28.3568 156.844 28.5814 157.098 28.7441C157.358 28.9004 157.674 28.9785 158.045 28.9785C158.527 28.9785 158.924 28.8711 159.236 28.6562C159.549 28.4349 159.786 28.1322 159.949 27.748C160.118 27.3639 160.216 26.9212 160.242 26.4199V25.1406C160.223 24.7305 160.164 24.3626 160.066 24.0371C159.975 23.7051 159.839 23.4219 159.656 23.1875C159.48 22.9531 159.259 22.7708 158.992 22.6406C158.732 22.5104 158.423 22.4453 158.064 22.4453C157.7 22.4453 157.387 22.5299 157.127 22.6992C156.867 22.862 156.655 23.0866 156.492 23.373C156.336 23.6595 156.219 23.998 156.141 24.3887C156.069 24.7728 156.033 25.1895 156.033 25.6387Z" fill="white"/>
<rect width="60" height="48" rx="8" fill="#935722"/>
<path d="M24.2192 9.9726H18.5206C16.9469 9.9726 15.6713 11.2483 15.6713 12.8219V35.6164C15.6713 37.1901 16.9469 38.4658 18.5206 38.4658H24.2192C25.7928 38.4658 27.0685 37.1901 27.0685 35.6164V12.8219C27.0685 11.2483 25.7928 9.9726 24.2192 9.9726Z" stroke="white" stroke-width="2" stroke-linecap="round" stroke-linejoin="round"/>
<path d="M41.3152 9.9726H35.6165C34.0429 9.9726 32.7672 11.2483 32.7672 12.8219V18.5205C32.7672 20.0942 34.0429 21.3699 35.6165 21.3699H41.3152C42.8888 21.3699 44.1645 20.0942 44.1645 18.5205V12.8219C44.1645 11.2483 42.8888 9.9726 41.3152 9.9726Z" stroke="white" stroke-width="2" stroke-linecap="round" stroke-linejoin="round"/>
<path d="M41.3152 27.0685H35.6165C34.0429 27.0685 32.7672 28.3442 32.7672 29.9178V35.6164C32.7672 37.1901 34.0429 38.4658 35.6165 38.4658H41.3152C42.8888 38.4658 44.1645 37.1901 44.1645 35.6164V29.9178C44.1645 28.3442 42.8888 27.0685 41.3152 27.0685Z" stroke="white" stroke-width="2" stroke-linecap="round" stroke-linejoin="round"/>
</svg>
