<svg width="338" height="68" viewBox="0 0 338 68" fill="none" xmlns="http://www.w3.org/2000/svg">
<g filter="url(#filter0_d_61_35)">
<rect x="4.4" y="0.4" width="329.2" height="59.2" rx="7.6" fill="#4267B2" stroke="black" stroke-width="0.8"/>
<line x1="61.25" y1="8.74228e-09" x2="61.25" y2="60" stroke="black" stroke-width="0.5"/>
<path d="M101.571 36V24.8H103.171V34.608H109.235V36H101.571ZM114.369 36.096C113.516 36.096 112.759 35.9093 112.097 35.536C111.436 35.1627 110.913 34.6507 110.529 34C110.145 33.3387 109.953 32.592 109.953 31.76C109.953 30.9173 110.145 30.1707 110.529 29.52C110.913 28.8693 111.436 28.3627 112.097 28C112.759 27.6267 113.516 27.44 114.369 27.44C115.212 27.44 115.964 27.6267 116.625 28C117.297 28.3627 117.82 28.8693 118.193 29.52C118.577 30.16 118.769 30.9067 118.769 31.76C118.769 32.6027 118.577 33.3493 118.193 34C117.82 34.6507 117.297 35.1627 116.625 35.536C115.964 35.9093 115.212 36.096 114.369 36.096ZM114.369 34.752C114.913 34.752 115.399 34.6293 115.825 34.384C116.263 34.1387 116.604 33.792 116.849 33.344C117.095 32.8853 117.217 32.3573 117.217 31.76C117.217 31.152 117.095 30.6293 116.849 30.192C116.604 29.744 116.263 29.3973 115.825 29.152C115.399 28.9067 114.913 28.784 114.369 28.784C113.825 28.784 113.34 28.9067 112.913 29.152C112.487 29.3973 112.145 29.744 111.889 30.192C111.633 30.6293 111.505 31.152 111.505 31.76C111.505 32.3573 111.633 32.8853 111.889 33.344C112.145 33.792 112.487 34.1387 112.913 34.384C113.34 34.6293 113.825 34.752 114.369 34.752ZM124.606 39.2C123.827 39.2 123.07 39.088 122.334 38.864C121.608 38.6507 121.016 38.3413 120.558 37.936L121.294 36.752C121.688 37.0933 122.174 37.36 122.75 37.552C123.326 37.7547 123.928 37.856 124.558 37.856C125.56 37.856 126.296 37.6213 126.766 37.152C127.235 36.6827 127.47 35.968 127.47 35.008V33.216L127.63 31.536L127.55 29.84V27.52H129.006V34.848C129.006 36.3413 128.632 37.44 127.885 38.144C127.139 38.848 126.046 39.2 124.606 39.2ZM124.414 35.648C123.592 35.648 122.856 35.4773 122.206 35.136C121.566 34.784 121.054 34.2987 120.67 33.68C120.296 33.0613 120.11 32.3467 120.11 31.536C120.11 30.7147 120.296 30 120.67 29.392C121.054 28.7733 121.566 28.2933 122.206 27.952C122.856 27.6107 123.592 27.44 124.414 27.44C125.139 27.44 125.8 27.5893 126.398 27.888C126.995 28.176 127.47 28.624 127.822 29.232C128.184 29.84 128.366 30.608 128.366 31.536C128.366 32.4533 128.184 33.216 127.822 33.824C127.47 34.432 126.995 34.8907 126.398 35.2C125.8 35.4987 125.139 35.648 124.414 35.648ZM124.59 34.304C125.155 34.304 125.656 34.1867 126.094 33.952C126.531 33.7173 126.872 33.392 127.118 32.976C127.374 32.56 127.502 32.08 127.502 31.536C127.502 30.992 127.374 30.512 127.118 30.096C126.872 29.68 126.531 29.36 126.094 29.136C125.656 28.9013 125.155 28.784 124.59 28.784C124.024 28.784 123.518 28.9013 123.07 29.136C122.632 29.36 122.286 29.68 122.03 30.096C121.784 30.512 121.662 30.992 121.662 31.536C121.662 32.08 121.784 32.56 122.03 32.976C122.286 33.392 122.632 33.7173 123.07 33.952C123.518 34.1867 124.024 34.304 124.59 34.304ZM131.94 36V27.52H133.476V36H131.94ZM132.708 25.888C132.41 25.888 132.159 25.792 131.956 25.6C131.764 25.408 131.668 25.1733 131.668 24.896C131.668 24.608 131.764 24.368 131.956 24.176C132.159 23.984 132.41 23.888 132.708 23.888C133.007 23.888 133.252 23.984 133.444 24.176C133.647 24.3573 133.748 24.5867 133.748 24.864C133.748 25.152 133.652 25.3973 133.46 25.6C133.268 25.792 133.018 25.888 132.708 25.888ZM140.937 27.44C141.63 27.44 142.238 27.5733 142.761 27.84C143.294 28.1067 143.71 28.512 144.009 29.056C144.308 29.6 144.457 30.288 144.457 31.12V36H142.921V31.296C142.921 30.4747 142.718 29.856 142.313 29.44C141.918 29.024 141.358 28.816 140.633 28.816C140.089 28.816 139.614 28.9227 139.209 29.136C138.804 29.3493 138.489 29.664 138.265 30.08C138.052 30.496 137.945 31.0133 137.945 31.632V36H136.409V27.52H137.881V29.808L137.641 29.2C137.918 28.6453 138.345 28.2133 138.921 27.904C139.497 27.5947 140.169 27.44 140.937 27.44ZM153.389 36L150.237 27.52H151.693L154.493 35.2H153.805L156.717 27.52H158.013L160.861 35.2H160.189L163.053 27.52H164.429L161.261 36H159.789L157.117 28.992H157.565L154.861 36H153.389ZM165.987 36V27.52H167.523V36H165.987ZM166.755 25.888C166.457 25.888 166.206 25.792 166.003 25.6C165.811 25.408 165.715 25.1733 165.715 24.896C165.715 24.608 165.811 24.368 166.003 24.176C166.206 23.984 166.457 23.888 166.755 23.888C167.054 23.888 167.299 23.984 167.491 24.176C167.694 24.3573 167.795 24.5867 167.795 24.864C167.795 25.152 167.699 25.3973 167.507 25.6C167.315 25.792 167.065 25.888 166.755 25.888ZM173.368 36.096C172.515 36.096 171.853 35.8667 171.384 35.408C170.915 34.9493 170.68 34.2933 170.68 33.44V25.664H172.216V33.376C172.216 33.8347 172.328 34.1867 172.552 34.432C172.787 34.6773 173.117 34.8 173.544 34.8C174.024 34.8 174.424 34.6667 174.744 34.4L175.224 35.504C174.989 35.7067 174.707 35.856 174.376 35.952C174.056 36.048 173.72 36.096 173.368 36.096ZM169.24 28.784V27.52H174.648V28.784H169.24ZM181.609 27.44C182.302 27.44 182.91 27.5733 183.433 27.84C183.966 28.1067 184.382 28.512 184.681 29.056C184.98 29.6 185.129 30.288 185.129 31.12V36H183.593V31.296C183.593 30.4747 183.39 29.856 182.985 29.44C182.59 29.024 182.03 28.816 181.305 28.816C180.761 28.816 180.286 28.9227 179.881 29.136C179.476 29.3493 179.161 29.664 178.937 30.08C178.724 30.496 178.617 31.0133 178.617 31.632V36H177.081V24.128H178.617V29.808L178.313 29.2C178.59 28.6453 179.017 28.2133 179.593 27.904C180.169 27.5947 180.841 27.44 181.609 27.44ZM193.933 30.096H199.709V31.472H193.933V30.096ZM194.093 36H192.493V24.8H200.397V26.192H194.093V36ZM207.376 36V34.208L207.296 33.872V30.816C207.296 30.1653 207.104 29.664 206.72 29.312C206.347 28.9493 205.782 28.768 205.024 28.768C204.523 28.768 204.032 28.8533 203.552 29.024C203.072 29.184 202.667 29.4027 202.336 29.68L201.696 28.528C202.134 28.176 202.656 27.9093 203.264 27.728C203.883 27.536 204.528 27.44 205.2 27.44C206.363 27.44 207.259 27.7227 207.888 28.288C208.518 28.8533 208.832 29.7173 208.832 30.88V36H207.376ZM204.592 36.096C203.963 36.096 203.408 35.9893 202.928 35.776C202.459 35.5627 202.096 35.2693 201.84 34.896C201.584 34.512 201.456 34.08 201.456 33.6C201.456 33.1413 201.563 32.7253 201.776 32.352C202 31.9787 202.358 31.68 202.848 31.456C203.35 31.232 204.022 31.12 204.864 31.12H207.552V32.224H204.928C204.16 32.224 203.643 32.352 203.376 32.608C203.11 32.864 202.976 33.1733 202.976 33.536C202.976 33.952 203.142 34.288 203.472 34.544C203.803 34.7893 204.262 34.912 204.848 34.912C205.424 34.912 205.926 34.784 206.352 34.528C206.79 34.272 207.104 33.8987 207.296 33.408L207.6 34.464C207.398 34.9653 207.04 35.3653 206.528 35.664C206.016 35.952 205.371 36.096 204.592 36.096ZM215.371 36.096C214.507 36.096 213.733 35.9093 213.051 35.536C212.379 35.1627 211.851 34.6507 211.467 34C211.083 33.3493 210.891 32.6027 210.891 31.76C210.891 30.9173 211.083 30.1707 211.467 29.52C211.851 28.8693 212.379 28.3627 213.051 28C213.733 27.6267 214.507 27.44 215.371 27.44C216.139 27.44 216.821 27.5947 217.419 27.904C218.027 28.2027 218.496 28.6507 218.827 29.248L217.659 30C217.381 29.584 217.04 29.28 216.635 29.088C216.24 28.8853 215.813 28.784 215.355 28.784C214.8 28.784 214.304 28.9067 213.867 29.152C213.429 29.3973 213.083 29.744 212.827 30.192C212.571 30.6293 212.443 31.152 212.443 31.76C212.443 32.368 212.571 32.896 212.827 33.344C213.083 33.792 213.429 34.1387 213.867 34.384C214.304 34.6293 214.8 34.752 215.355 34.752C215.813 34.752 216.24 34.656 216.635 34.464C217.04 34.2613 217.381 33.952 217.659 33.536L218.827 34.272C218.496 34.8587 218.027 35.312 217.419 35.632C216.821 35.9413 216.139 36.096 215.371 36.096ZM224.466 36.096C223.56 36.096 222.76 35.9093 222.066 35.536C221.384 35.1627 220.85 34.6507 220.466 34C220.093 33.3493 219.906 32.6027 219.906 31.76C219.906 30.9173 220.088 30.1707 220.45 29.52C220.824 28.8693 221.33 28.3627 221.97 28C222.621 27.6267 223.352 27.44 224.162 27.44C224.984 27.44 225.709 27.6213 226.338 27.984C226.968 28.3467 227.458 28.8587 227.81 29.52C228.173 30.1707 228.354 30.9333 228.354 31.808C228.354 31.872 228.349 31.9467 228.338 32.032C228.338 32.1173 228.333 32.1973 228.322 32.272H221.106V31.168H227.522L226.898 31.552C226.909 31.008 226.797 30.5227 226.562 30.096C226.328 29.6693 226.002 29.3387 225.586 29.104C225.181 28.8587 224.706 28.736 224.162 28.736C223.629 28.736 223.154 28.8587 222.738 29.104C222.322 29.3387 221.997 29.6747 221.762 30.112C221.528 30.5387 221.41 31.0293 221.41 31.584V31.84C221.41 32.4053 221.538 32.912 221.794 33.36C222.061 33.7973 222.429 34.1387 222.898 34.384C223.368 34.6293 223.906 34.752 224.514 34.752C225.016 34.752 225.469 34.6667 225.874 34.496C226.29 34.3253 226.653 34.0693 226.962 33.728L227.81 34.72C227.426 35.168 226.946 35.5093 226.37 35.744C225.805 35.9787 225.17 36.096 224.466 36.096ZM234.983 36.096C234.258 36.096 233.602 35.936 233.015 35.616C232.439 35.2853 231.981 34.8 231.639 34.16C231.309 33.52 231.143 32.72 231.143 31.76C231.143 30.8 231.314 30 231.655 29.36C232.007 28.72 232.471 28.24 233.047 27.92C233.634 27.6 234.279 27.44 234.983 27.44C235.815 27.44 236.551 27.6213 237.191 27.984C237.831 28.3467 238.338 28.8533 238.711 29.504C239.085 30.144 239.271 30.896 239.271 31.76C239.271 32.624 239.085 33.3813 238.711 34.032C238.338 34.6827 237.831 35.1893 237.191 35.552C236.551 35.9147 235.815 36.096 234.983 36.096ZM230.487 36V24.128H232.023V29.776L231.863 31.744L231.959 33.712V36H230.487ZM234.855 34.752C235.399 34.752 235.885 34.6293 236.311 34.384C236.749 34.1387 237.09 33.792 237.335 33.344C237.591 32.8853 237.719 32.3573 237.719 31.76C237.719 31.152 237.591 30.6293 237.335 30.192C237.09 29.744 236.749 29.3973 236.311 29.152C235.885 28.9067 235.399 28.784 234.855 28.784C234.322 28.784 233.837 28.9067 233.399 29.152C232.973 29.3973 232.631 29.744 232.375 30.192C232.13 30.6293 232.007 31.152 232.007 31.76C232.007 32.3573 232.13 32.8853 232.375 33.344C232.631 33.792 232.973 34.1387 233.399 34.384C233.837 34.6293 234.322 34.752 234.855 34.752ZM245.026 36.096C244.172 36.096 243.415 35.9093 242.754 35.536C242.092 35.1627 241.57 34.6507 241.186 34C240.802 33.3387 240.61 32.592 240.61 31.76C240.61 30.9173 240.802 30.1707 241.186 29.52C241.57 28.8693 242.092 28.3627 242.754 28C243.415 27.6267 244.172 27.44 245.026 27.44C245.868 27.44 246.62 27.6267 247.282 28C247.954 28.3627 248.476 28.8693 248.85 29.52C249.234 30.16 249.426 30.9067 249.426 31.76C249.426 32.6027 249.234 33.3493 248.85 34C248.476 34.6507 247.954 35.1627 247.282 35.536C246.62 35.9093 245.868 36.096 245.026 36.096ZM245.026 34.752C245.57 34.752 246.055 34.6293 246.482 34.384C246.919 34.1387 247.26 33.792 247.506 33.344C247.751 32.8853 247.874 32.3573 247.874 31.76C247.874 31.152 247.751 30.6293 247.506 30.192C247.26 29.744 246.919 29.3973 246.482 29.152C246.055 28.9067 245.57 28.784 245.026 28.784C244.482 28.784 243.996 28.9067 243.57 29.152C243.143 29.3973 242.802 29.744 242.546 30.192C242.29 30.6293 242.162 31.152 242.162 31.76C242.162 32.3573 242.29 32.8853 242.546 33.344C242.802 33.792 243.143 34.1387 243.57 34.384C243.996 34.6293 244.482 34.752 245.026 34.752ZM255.182 36.096C254.328 36.096 253.571 35.9093 252.91 35.536C252.248 35.1627 251.726 34.6507 251.342 34C250.958 33.3387 250.766 32.592 250.766 31.76C250.766 30.9173 250.958 30.1707 251.342 29.52C251.726 28.8693 252.248 28.3627 252.91 28C253.571 27.6267 254.328 27.44 255.182 27.44C256.024 27.44 256.776 27.6267 257.438 28C258.11 28.3627 258.632 28.8693 259.006 29.52C259.39 30.16 259.582 30.9067 259.582 31.76C259.582 32.6027 259.39 33.3493 259.006 34C258.632 34.6507 258.11 35.1627 257.438 35.536C256.776 35.9093 256.024 36.096 255.182 36.096ZM255.182 34.752C255.726 34.752 256.211 34.6293 256.638 34.384C257.075 34.1387 257.416 33.792 257.662 33.344C257.907 32.8853 258.03 32.3573 258.03 31.76C258.03 31.152 257.907 30.6293 257.662 30.192C257.416 29.744 257.075 29.3973 256.638 29.152C256.211 28.9067 255.726 28.784 255.182 28.784C254.638 28.784 254.152 28.9067 253.726 29.152C253.299 29.3973 252.958 29.744 252.702 30.192C252.446 30.6293 252.318 31.152 252.318 31.76C252.318 32.3573 252.446 32.8853 252.702 33.344C252.958 33.792 253.299 34.1387 253.726 34.384C254.152 34.6293 254.638 34.752 255.182 34.752ZM262.954 33.952L262.986 31.984L267.866 27.52H269.722L265.978 31.2L265.146 31.904L262.954 33.952ZM261.706 36V24.128H263.242V36H261.706ZM268.186 36L264.858 31.872L265.85 30.64L270.074 36H268.186Z" fill="white"/>
<path d="M32.2 17C24.9103 17 19 22.9103 19 30.2C19 36.8176 23.8752 42.2824 30.2266 43.2372V33.698H26.9607V30.2286H30.2266V27.9197C30.2266 24.0972 32.0889 22.4197 35.2657 22.4197C36.787 22.4197 37.5922 22.533 37.9728 22.5836V25.6119H35.8058C34.4572 25.6119 33.9864 26.8912 33.9864 28.3322V30.2286H37.9387L37.403 33.698H33.9864V43.2647C40.4291 42.3913 45.4 36.8825 45.4 30.2C45.4 22.9103 39.4897 17 32.2 17Z" fill="white"/>
</g>
<defs>
<filter id="filter0_d_61_35" x="0" y="0" width="338" height="68" filterUnits="userSpaceOnUse" color-interpolation-filters="sRGB">
<feFlood flood-opacity="0" result="BackgroundImageFix"/>
<feColorMatrix in="SourceAlpha" type="matrix" values="0 0 0 0 0 0 0 0 0 0 0 0 0 0 0 0 0 0 127 0" result="hardAlpha"/>
<feOffset dy="4"/>
<feGaussianBlur stdDeviation="2"/>
<feComposite in2="hardAlpha" operator="out"/>
<feColorMatrix type="matrix" values="0 0 0 0 0.6375 0 0 0 0 0.6375 0 0 0 0 0.6375 0 0 0 0.25 0"/>
<feBlend mode="normal" in2="BackgroundImageFix" result="effect1_dropShadow_61_35"/>
<feBlend mode="normal" in="SourceGraphic" in2="effect1_dropShadow_61_35" result="shape"/>
</filter>
</defs>
</svg>
