<svg width="338" height="68" viewBox="0 0 338 68" fill="none" xmlns="http://www.w3.org/2000/svg">
<g filter="url(#filter0_d_61_27)">
<rect x="4.4" y="0.4" width="329.2" height="59.2" rx="7.6" fill="#DB4437" stroke="black" stroke-width="0.8"/>
<line x1="61.25" y1="8.74228e-09" x2="61.25" y2="60" stroke="black" stroke-width="0.5"/>
<path d="M112.227 36V24.8H113.827V34.608H119.891V36H112.227ZM125.026 36.096C124.172 36.096 123.415 35.9093 122.754 35.536C122.092 35.1627 121.57 34.6507 121.186 34C120.802 33.3387 120.61 32.592 120.61 31.76C120.61 30.9173 120.802 30.1707 121.186 29.52C121.57 28.8693 122.092 28.3627 122.754 28C123.415 27.6267 124.172 27.44 125.026 27.44C125.868 27.44 126.62 27.6267 127.282 28C127.954 28.3627 128.476 28.8693 128.85 29.52C129.234 30.16 129.426 30.9067 129.426 31.76C129.426 32.6027 129.234 33.3493 128.85 34C128.476 34.6507 127.954 35.1627 127.282 35.536C126.62 35.9093 125.868 36.096 125.026 36.096ZM125.026 34.752C125.57 34.752 126.055 34.6293 126.482 34.384C126.919 34.1387 127.26 33.792 127.506 33.344C127.751 32.8853 127.874 32.3573 127.874 31.76C127.874 31.152 127.751 30.6293 127.506 30.192C127.26 29.744 126.919 29.3973 126.482 29.152C126.055 28.9067 125.57 28.784 125.026 28.784C124.482 28.784 123.996 28.9067 123.57 29.152C123.143 29.3973 122.802 29.744 122.546 30.192C122.29 30.6293 122.162 31.152 122.162 31.76C122.162 32.3573 122.29 32.8853 122.546 33.344C122.802 33.792 123.143 34.1387 123.57 34.384C123.996 34.6293 124.482 34.752 125.026 34.752ZM135.262 39.2C134.483 39.2 133.726 39.088 132.99 38.864C132.264 38.6507 131.672 38.3413 131.214 37.936L131.95 36.752C132.344 37.0933 132.83 37.36 133.406 37.552C133.982 37.7547 134.584 37.856 135.214 37.856C136.216 37.856 136.952 37.6213 137.422 37.152C137.891 36.6827 138.126 35.968 138.126 35.008V33.216L138.286 31.536L138.206 29.84V27.52H139.662V34.848C139.662 36.3413 139.288 37.44 138.542 38.144C137.795 38.848 136.702 39.2 135.262 39.2ZM135.07 35.648C134.248 35.648 133.512 35.4773 132.862 35.136C132.222 34.784 131.71 34.2987 131.326 33.68C130.952 33.0613 130.766 32.3467 130.766 31.536C130.766 30.7147 130.952 30 131.326 29.392C131.71 28.7733 132.222 28.2933 132.862 27.952C133.512 27.6107 134.248 27.44 135.07 27.44C135.795 27.44 136.456 27.5893 137.054 27.888C137.651 28.176 138.126 28.624 138.478 29.232C138.84 29.84 139.022 30.608 139.022 31.536C139.022 32.4533 138.84 33.216 138.478 33.824C138.126 34.432 137.651 34.8907 137.054 35.2C136.456 35.4987 135.795 35.648 135.07 35.648ZM135.246 34.304C135.811 34.304 136.312 34.1867 136.75 33.952C137.187 33.7173 137.528 33.392 137.774 32.976C138.03 32.56 138.158 32.08 138.158 31.536C138.158 30.992 138.03 30.512 137.774 30.096C137.528 29.68 137.187 29.36 136.75 29.136C136.312 28.9013 135.811 28.784 135.246 28.784C134.68 28.784 134.174 28.9013 133.726 29.136C133.288 29.36 132.942 29.68 132.686 30.096C132.44 30.512 132.318 30.992 132.318 31.536C132.318 32.08 132.44 32.56 132.686 32.976C132.942 33.392 133.288 33.7173 133.726 33.952C134.174 34.1867 134.68 34.304 135.246 34.304ZM142.597 36V27.52H144.133V36H142.597ZM143.365 25.888C143.066 25.888 142.815 25.792 142.613 25.6C142.421 25.408 142.325 25.1733 142.325 24.896C142.325 24.608 142.421 24.368 142.613 24.176C142.815 23.984 143.066 23.888 143.365 23.888C143.663 23.888 143.909 23.984 144.101 24.176C144.303 24.3573 144.405 24.5867 144.405 24.864C144.405 25.152 144.309 25.3973 144.117 25.6C143.925 25.792 143.674 25.888 143.365 25.888ZM151.593 27.44C152.287 27.44 152.895 27.5733 153.417 27.84C153.951 28.1067 154.367 28.512 154.665 29.056C154.964 29.6 155.113 30.288 155.113 31.12V36H153.577V31.296C153.577 30.4747 153.375 29.856 152.969 29.44C152.575 29.024 152.015 28.816 151.289 28.816C150.745 28.816 150.271 28.9227 149.865 29.136C149.46 29.3493 149.145 29.664 148.921 30.08C148.708 30.496 148.601 31.0133 148.601 31.632V36H147.065V27.52H148.537V29.808L148.297 29.2C148.575 28.6453 149.001 28.2133 149.577 27.904C150.153 27.5947 150.825 27.44 151.593 27.44ZM164.045 36L160.893 27.52H162.349L165.149 35.2H164.461L167.373 27.52H168.669L171.517 35.2H170.845L173.709 27.52H175.085L171.917 36H170.445L167.773 28.992H168.221L165.517 36H164.045ZM176.644 36V27.52H178.18V36H176.644ZM177.412 25.888C177.113 25.888 176.862 25.792 176.66 25.6C176.468 25.408 176.372 25.1733 176.372 24.896C176.372 24.608 176.468 24.368 176.66 24.176C176.862 23.984 177.113 23.888 177.412 23.888C177.71 23.888 177.956 23.984 178.148 24.176C178.35 24.3573 178.452 24.5867 178.452 24.864C178.452 25.152 178.356 25.3973 178.164 25.6C177.972 25.792 177.721 25.888 177.412 25.888ZM184.024 36.096C183.171 36.096 182.51 35.8667 182.04 35.408C181.571 34.9493 181.336 34.2933 181.336 33.44V25.664H182.872V33.376C182.872 33.8347 182.984 34.1867 183.208 34.432C183.443 34.6773 183.774 34.8 184.2 34.8C184.68 34.8 185.08 34.6667 185.4 34.4L185.88 35.504C185.646 35.7067 185.363 35.856 185.032 35.952C184.712 36.048 184.376 36.096 184.024 36.096ZM179.896 28.784V27.52H185.304V28.784H179.896ZM192.265 27.44C192.959 27.44 193.567 27.5733 194.089 27.84C194.623 28.1067 195.039 28.512 195.337 29.056C195.636 29.6 195.785 30.288 195.785 31.12V36H194.249V31.296C194.249 30.4747 194.047 29.856 193.641 29.44C193.247 29.024 192.687 28.816 191.961 28.816C191.417 28.816 190.943 28.9227 190.537 29.136C190.132 29.3493 189.817 29.664 189.593 30.08C189.38 30.496 189.273 31.0133 189.273 31.632V36H187.737V24.128H189.273V29.808L188.969 29.2C189.247 28.6453 189.673 28.2133 190.249 27.904C190.825 27.5947 191.497 27.44 192.265 27.44ZM208.205 36.128C207.341 36.128 206.546 35.9893 205.821 35.712C205.095 35.424 204.466 35.024 203.933 34.512C203.399 33.9893 202.983 33.3813 202.685 32.688C202.386 31.9947 202.237 31.232 202.237 30.4C202.237 29.568 202.386 28.8053 202.685 28.112C202.983 27.4187 203.399 26.816 203.933 26.304C204.477 25.7813 205.111 25.3813 205.837 25.104C206.562 24.816 207.362 24.672 208.237 24.672C209.122 24.672 209.933 24.816 210.669 25.104C211.405 25.392 212.029 25.824 212.541 26.4L211.549 27.392C211.09 26.944 210.589 26.6187 210.045 26.416C209.511 26.2027 208.93 26.096 208.301 26.096C207.661 26.096 207.063 26.2027 206.509 26.416C205.965 26.6293 205.49 26.928 205.085 27.312C204.69 27.696 204.381 28.1547 204.157 28.688C203.943 29.2107 203.837 29.7813 203.837 30.4C203.837 31.008 203.943 31.5787 204.157 32.112C204.381 32.6347 204.69 33.0933 205.085 33.488C205.49 33.872 205.965 34.1707 206.509 34.384C207.053 34.5973 207.645 34.704 208.285 34.704C208.882 34.704 209.453 34.6133 209.997 34.432C210.551 34.24 211.063 33.9253 211.533 33.488L212.445 34.704C211.89 35.1733 211.239 35.5307 210.493 35.776C209.757 36.0107 208.994 36.128 208.205 36.128ZM210.909 34.496V30.336H212.445V34.704L210.909 34.496ZM218.916 36.096C218.063 36.096 217.305 35.9093 216.644 35.536C215.983 35.1627 215.46 34.6507 215.076 34C214.692 33.3387 214.5 32.592 214.5 31.76C214.5 30.9173 214.692 30.1707 215.076 29.52C215.46 28.8693 215.983 28.3627 216.644 28C217.305 27.6267 218.063 27.44 218.916 27.44C219.759 27.44 220.511 27.6267 221.172 28C221.844 28.3627 222.367 28.8693 222.74 29.52C223.124 30.16 223.316 30.9067 223.316 31.76C223.316 32.6027 223.124 33.3493 222.74 34C222.367 34.6507 221.844 35.1627 221.172 35.536C220.511 35.9093 219.759 36.096 218.916 36.096ZM218.916 34.752C219.46 34.752 219.945 34.6293 220.372 34.384C220.809 34.1387 221.151 33.792 221.396 33.344C221.641 32.8853 221.764 32.3573 221.764 31.76C221.764 31.152 221.641 30.6293 221.396 30.192C221.151 29.744 220.809 29.3973 220.372 29.152C219.945 28.9067 219.46 28.784 218.916 28.784C218.372 28.784 217.887 28.9067 217.46 29.152C217.033 29.3973 216.692 29.744 216.436 30.192C216.18 30.6293 216.052 31.152 216.052 31.76C216.052 32.3573 216.18 32.8853 216.436 33.344C216.692 33.792 217.033 34.1387 217.46 34.384C217.887 34.6293 218.372 34.752 218.916 34.752ZM229.072 36.096C228.219 36.096 227.462 35.9093 226.8 35.536C226.139 35.1627 225.616 34.6507 225.232 34C224.848 33.3387 224.656 32.592 224.656 31.76C224.656 30.9173 224.848 30.1707 225.232 29.52C225.616 28.8693 226.139 28.3627 226.8 28C227.462 27.6267 228.219 27.44 229.072 27.44C229.915 27.44 230.667 27.6267 231.328 28C232 28.3627 232.523 28.8693 232.896 29.52C233.28 30.16 233.472 30.9067 233.472 31.76C233.472 32.6027 233.28 33.3493 232.896 34C232.523 34.6507 232 35.1627 231.328 35.536C230.667 35.9093 229.915 36.096 229.072 36.096ZM229.072 34.752C229.616 34.752 230.102 34.6293 230.528 34.384C230.966 34.1387 231.307 33.792 231.552 33.344C231.798 32.8853 231.92 32.3573 231.92 31.76C231.92 31.152 231.798 30.6293 231.552 30.192C231.307 29.744 230.966 29.3973 230.528 29.152C230.102 28.9067 229.616 28.784 229.072 28.784C228.528 28.784 228.043 28.9067 227.616 29.152C227.19 29.3973 226.848 29.744 226.592 30.192C226.336 30.6293 226.208 31.152 226.208 31.76C226.208 32.3573 226.336 32.8853 226.592 33.344C226.848 33.792 227.19 34.1387 227.616 34.384C228.043 34.6293 228.528 34.752 229.072 34.752ZM239.309 39.2C238.53 39.2 237.773 39.088 237.037 38.864C236.311 38.6507 235.719 38.3413 235.261 37.936L235.997 36.752C236.391 37.0933 236.877 37.36 237.453 37.552C238.029 37.7547 238.631 37.856 239.261 37.856C240.263 37.856 240.999 37.6213 241.469 37.152C241.938 36.6827 242.173 35.968 242.173 35.008V33.216L242.333 31.536L242.253 29.84V27.52H243.709V34.848C243.709 36.3413 243.335 37.44 242.589 38.144C241.842 38.848 240.749 39.2 239.309 39.2ZM239.117 35.648C238.295 35.648 237.559 35.4773 236.909 35.136C236.269 34.784 235.757 34.2987 235.373 33.68C234.999 33.0613 234.813 32.3467 234.813 31.536C234.813 30.7147 234.999 30 235.373 29.392C235.757 28.7733 236.269 28.2933 236.909 27.952C237.559 27.6107 238.295 27.44 239.117 27.44C239.842 27.44 240.503 27.5893 241.101 27.888C241.698 28.176 242.173 28.624 242.525 29.232C242.887 29.84 243.069 30.608 243.069 31.536C243.069 32.4533 242.887 33.216 242.525 33.824C242.173 34.432 241.698 34.8907 241.101 35.2C240.503 35.4987 239.842 35.648 239.117 35.648ZM239.293 34.304C239.858 34.304 240.359 34.1867 240.797 33.952C241.234 33.7173 241.575 33.392 241.821 32.976C242.077 32.56 242.205 32.08 242.205 31.536C242.205 30.992 242.077 30.512 241.821 30.096C241.575 29.68 241.234 29.36 240.797 29.136C240.359 28.9013 239.858 28.784 239.293 28.784C238.727 28.784 238.221 28.9013 237.773 29.136C237.335 29.36 236.989 29.68 236.733 30.096C236.487 30.512 236.365 30.992 236.365 31.536C236.365 32.08 236.487 32.56 236.733 32.976C236.989 33.392 237.335 33.7173 237.773 33.952C238.221 34.1867 238.727 34.304 239.293 34.304ZM246.644 36V24.128H248.18V36H246.644ZM254.888 36.096C253.982 36.096 253.182 35.9093 252.488 35.536C251.806 35.1627 251.272 34.6507 250.888 34C250.515 33.3493 250.328 32.6027 250.328 31.76C250.328 30.9173 250.51 30.1707 250.872 29.52C251.246 28.8693 251.752 28.3627 252.392 28C253.043 27.6267 253.774 27.44 254.584 27.44C255.406 27.44 256.131 27.6213 256.76 27.984C257.39 28.3467 257.88 28.8587 258.232 29.52C258.595 30.1707 258.776 30.9333 258.776 31.808C258.776 31.872 258.771 31.9467 258.76 32.032C258.76 32.1173 258.755 32.1973 258.744 32.272H251.528V31.168H257.944L257.32 31.552C257.331 31.008 257.219 30.5227 256.984 30.096C256.75 29.6693 256.424 29.3387 256.008 29.104C255.603 28.8587 255.128 28.736 254.584 28.736C254.051 28.736 253.576 28.8587 253.16 29.104C252.744 29.3387 252.419 29.6747 252.184 30.112C251.95 30.5387 251.832 31.0293 251.832 31.584V31.84C251.832 32.4053 251.96 32.912 252.216 33.36C252.483 33.7973 252.851 34.1387 253.32 34.384C253.79 34.6293 254.328 34.752 254.936 34.752C255.438 34.752 255.891 34.6667 256.296 34.496C256.712 34.3253 257.075 34.0693 257.384 33.728L258.232 34.72C257.848 35.168 257.368 35.5093 256.792 35.744C256.227 35.9787 255.592 36.096 254.888 36.096Z" fill="white"/>
<path d="M32.2043 17C24.9124 17 19 22.9103 19 30.2C19 37.4897 24.9124 43.4 32.2043 43.4C43.2153 43.4 45.696 33.1777 44.6631 28H43.2H40.7057H32.2V32.4H40.7121C39.7336 36.1931 36.2985 39 32.2 39C27.3402 39 23.4 35.0598 23.4 30.2C23.4 25.3402 27.3402 21.4 32.2 21.4C34.4099 21.4 36.4231 22.2203 37.9686 23.5656L41.0945 20.4418C38.7471 18.3034 35.6286 17 32.2043 17Z" fill="white"/>
</g>
<defs>
<filter id="filter0_d_61_27" x="0" y="0" width="338" height="68" filterUnits="userSpaceOnUse" color-interpolation-filters="sRGB">
<feFlood flood-opacity="0" result="BackgroundImageFix"/>
<feColorMatrix in="SourceAlpha" type="matrix" values="0 0 0 0 0 0 0 0 0 0 0 0 0 0 0 0 0 0 127 0" result="hardAlpha"/>
<feOffset dy="4"/>
<feGaussianBlur stdDeviation="2"/>
<feComposite in2="hardAlpha" operator="out"/>
<feColorMatrix type="matrix" values="0 0 0 0 0.6375 0 0 0 0 0.6375 0 0 0 0 0.6375 0 0 0 0.25 0"/>
<feBlend mode="normal" in2="BackgroundImageFix" result="effect1_dropShadow_61_27"/>
<feBlend mode="normal" in="SourceGraphic" in2="effect1_dropShadow_61_27" result="shape"/>
</filter>
</defs>
</svg>
