<svg width="118" height="118" viewBox="0 0 118 118" fill="none" xmlns="http://www.w3.org/2000/svg">
<rect width="118" height="118" fill="white"/>
<rect x="9" y="9" width="100" height="50" fill="#B2722A"/>
<ellipse cx="78.25" cy="68.3502" rx="3.25" ry="3.15" fill="#B2722A"/>
<path d="M50.9746 13.2727H59.5854V39.7216C59.5854 42.6913 58.8761 45.2898 57.4576 47.517C56.0523 49.7443 54.0835 51.4811 51.5513 52.7273C49.0191 53.9602 46.0693 54.5767 42.7019 54.5767C39.3212 54.5767 36.3648 53.9602 33.8326 52.7273C31.3004 51.4811 29.3316 49.7443 27.9263 47.517C26.521 45.2898 25.8184 42.6913 25.8184 39.7216V13.2727H34.4292V38.9858C34.4292 40.5369 34.7672 41.9157 35.4434 43.1222C36.1328 44.3286 37.1006 45.2765 38.3468 45.9659C39.593 46.6553 41.0447 47 42.7019 47C44.3723 47 45.824 46.6553 47.057 45.9659C48.3032 45.2765 49.2644 44.3286 49.9405 43.1222C50.6299 41.9157 50.9746 40.5369 50.9746 38.9858V13.2727ZM68.3038 13.2727L76.5169 27.1534H76.835L85.0879 13.2727H94.8123L82.3833 33.6364L95.0907 54H85.1873L76.835 40.0994H76.5169L68.1646 54H58.301L71.0481 33.6364L58.5396 13.2727H68.3038Z" fill="white"/>
<path d="M12.4872 103V66.6364H17.9737V98.277H34.451V103H12.4872ZM48.288 103.55C45.601 103.55 43.2868 102.976 41.3455 101.828C39.4161 100.668 37.9246 99.0405 36.8711 96.9453C35.8294 94.8383 35.3086 92.3703 35.3086 89.5412C35.3086 86.7476 35.8294 84.2855 36.8711 82.1548C37.9246 80.0241 39.3924 78.361 41.2745 77.1655C43.1684 75.9699 45.382 75.3722 47.9151 75.3722C49.454 75.3722 50.9454 75.6267 52.3896 76.1357C53.8337 76.6446 55.1299 77.4437 56.2781 78.5327C57.4263 79.6217 58.3318 81.0362 58.9947 82.7763C59.6576 84.5045 59.989 86.6056 59.989 89.0795V90.9616H38.3093V86.9844H54.7866C54.7866 85.5876 54.5025 84.3506 53.9343 83.2734C53.3661 82.1844 52.5671 81.3262 51.5373 80.6989C50.5193 80.0715 49.3237 79.7578 47.9506 79.7578C46.4592 79.7578 45.1571 80.1248 44.0444 80.8587C42.9435 81.5807 42.0913 82.5277 41.4876 83.6996C40.8957 84.8596 40.5998 86.1203 40.5998 87.4815V90.5888C40.5998 92.4117 40.9194 93.9624 41.5586 95.2408C42.2096 96.5192 43.1152 97.4957 44.2752 98.1705C45.4353 98.8333 46.7906 99.1648 48.3413 99.1648C49.3474 99.1648 50.2648 99.0227 51.0934 98.7386C51.922 98.4427 52.6381 98.0047 53.2418 97.4247C53.8455 96.8447 54.3072 96.1286 54.6268 95.2763L59.6516 96.1818C59.2492 97.6615 58.5271 98.9576 57.4854 100.07C56.4556 101.171 55.1594 102.029 53.5969 102.645C52.0463 103.249 50.2766 103.55 48.288 103.55ZM62.1294 103V75.7273H67.2608V80.0597H67.5449C68.0421 78.5919 68.918 77.4377 70.1728 76.5973C71.4393 75.745 72.8716 75.3189 74.4696 75.3189C74.8011 75.3189 75.1917 75.3307 75.6415 75.3544C76.1032 75.3781 76.4642 75.4077 76.7246 75.4432V80.5213C76.5115 80.4621 76.1328 80.397 75.5882 80.326C75.0437 80.2431 74.4992 80.2017 73.9547 80.2017C72.7 80.2017 71.5814 80.468 70.5989 81.0007C69.6283 81.5215 68.8588 82.2495 68.2907 83.1847C67.7225 84.108 67.4384 85.1615 67.4384 86.3452V103H62.1294ZM77.5689 103V75.7273H82.8778V103H77.5689ZM80.25 71.5192C79.3267 71.5192 78.5336 71.2114 77.8707 70.5959C77.2197 69.9685 76.8942 69.2228 76.8942 68.3587C76.8942 67.4827 77.2197 66.737 77.8707 66.1214C78.5336 65.4941 79.3267 65.1804 80.25 65.1804C81.1733 65.1804 81.9605 65.4941 82.6115 66.1214C83.2744 66.737 83.6058 67.4827 83.6058 68.3587C83.6058 69.2228 83.2744 69.9685 82.6115 70.5959C81.9605 71.2114 81.1733 71.5192 80.25 71.5192ZM106.707 82.3857L101.895 83.2379C101.694 82.6224 101.374 82.0365 100.936 81.4801C100.51 80.9238 99.9301 80.468 99.1962 80.1129C98.4623 79.7578 97.5449 79.5803 96.4441 79.5803C94.9408 79.5803 93.686 79.9176 92.6799 80.5923C91.6737 81.2552 91.1706 82.1134 91.1706 83.1669C91.1706 84.0784 91.508 84.8123 92.1827 85.3686C92.8574 85.925 93.9464 86.3807 95.4498 86.7358L99.7821 87.7301C102.292 88.3101 104.162 89.2038 105.393 90.4112C106.624 91.6186 107.24 93.187 107.24 95.1165C107.24 96.75 106.766 98.206 105.819 99.4844C104.884 100.751 103.576 101.745 101.895 102.467C100.226 103.189 98.2907 103.55 96.089 103.55C93.035 103.55 90.5433 102.899 88.6138 101.597C86.6844 100.283 85.5007 98.419 85.0627 96.0043L90.1941 95.223C90.5137 96.5606 91.1706 97.5727 92.165 98.2592C93.1593 98.9339 94.4554 99.2713 96.0534 99.2713C97.7935 99.2713 99.1844 98.9103 100.226 98.1882C101.268 97.4543 101.789 96.5606 101.789 95.5071C101.789 94.6548 101.469 93.9387 100.83 93.3587C100.202 92.7786 99.2376 92.3407 97.9355 92.0447L93.3191 91.0327C90.7741 90.4527 88.892 89.5294 87.6728 88.2628C86.4654 86.9962 85.8617 85.3923 85.8617 83.451C85.8617 81.8411 86.3115 80.4325 87.2111 79.2251C88.1107 78.0178 89.3536 77.0767 90.9398 76.402C92.526 75.7154 94.343 75.3722 96.3908 75.3722C99.3382 75.3722 101.658 76.0114 103.351 77.2898C105.044 78.5563 106.162 80.255 106.707 82.3857Z" fill="#3E4040"/>
</svg>
