<svg width="228" height="48" viewBox="0 0 228 48" fill="none" xmlns="http://www.w3.org/2000/svg">
<rect x="38" width="190" height="48" rx="8" fill="#A66226"/>
<path d="M77.4102 28.7148V31H70.252V28.7148H77.4102ZM71.1992 16.7812V31H68.2695V16.7812H71.1992ZM78.4648 25.8242V25.6191C78.4648 24.8444 78.5755 24.1315 78.7969 23.4805C79.0182 22.8229 79.3405 22.2533 79.7637 21.7715C80.1868 21.2897 80.7077 20.9154 81.3262 20.6484C81.9447 20.375 82.6543 20.2383 83.4551 20.2383C84.2559 20.2383 84.9688 20.375 85.5938 20.6484C86.2188 20.9154 86.7428 21.2897 87.166 21.7715C87.5957 22.2533 87.9212 22.8229 88.1426 23.4805C88.3639 24.1315 88.4746 24.8444 88.4746 25.6191V25.8242C88.4746 26.5924 88.3639 27.3053 88.1426 27.9629C87.9212 28.6139 87.5957 29.1836 87.166 29.6719C86.7428 30.1536 86.222 30.528 85.6035 30.7949C84.985 31.0618 84.2754 31.1953 83.4746 31.1953C82.6738 31.1953 81.9609 31.0618 81.3359 30.7949C80.7174 30.528 80.1934 30.1536 79.7637 29.6719C79.3405 29.1836 79.0182 28.6139 78.7969 27.9629C78.5755 27.3053 78.4648 26.5924 78.4648 25.8242ZM81.2773 25.6191V25.8242C81.2773 26.2669 81.3164 26.6803 81.3945 27.0645C81.4727 27.4486 81.5964 27.7871 81.7656 28.0801C81.9414 28.3665 82.1693 28.5911 82.4492 28.7539C82.7292 28.9167 83.071 28.998 83.4746 28.998C83.8652 28.998 84.2005 28.9167 84.4805 28.7539C84.7604 28.5911 84.985 28.3665 85.1543 28.0801C85.3236 27.7871 85.4473 27.4486 85.5254 27.0645C85.61 26.6803 85.6523 26.2669 85.6523 25.8242V25.6191C85.6523 25.1895 85.61 24.7858 85.5254 24.4082C85.4473 24.0241 85.3203 23.6855 85.1445 23.3926C84.9753 23.0931 84.7507 22.8587 84.4707 22.6895C84.1908 22.5202 83.8522 22.4355 83.4551 22.4355C83.0579 22.4355 82.7194 22.5202 82.4395 22.6895C82.166 22.8587 81.9414 23.0931 81.7656 23.3926C81.5964 23.6855 81.4727 24.0241 81.3945 24.4082C81.3164 24.7858 81.2773 25.1895 81.2773 25.6191ZM96.8926 20.4336H99.4414V30.6484C99.4414 31.612 99.2266 32.429 98.7969 33.0996C98.3737 33.7767 97.7812 34.2878 97.0195 34.6328C96.2578 34.9844 95.3724 35.1602 94.3633 35.1602C93.9206 35.1602 93.4518 35.1016 92.957 34.9844C92.4688 34.8672 92 34.6849 91.5508 34.4375C91.1081 34.1901 90.737 33.8776 90.4375 33.5L91.6777 31.8398C92.0033 32.2174 92.3809 32.5104 92.8105 32.7188C93.2402 32.9336 93.7155 33.041 94.2363 33.041C94.7441 33.041 95.1738 32.9466 95.5254 32.7578C95.877 32.5755 96.1471 32.3053 96.3359 31.9473C96.5247 31.5957 96.6191 31.1693 96.6191 30.668V22.875L96.8926 20.4336ZM89.7832 25.8438V25.6387C89.7832 24.8314 89.8809 24.099 90.0762 23.4414C90.278 22.7773 90.5612 22.2077 90.9258 21.7324C91.2969 21.2572 91.7461 20.8893 92.2734 20.6289C92.8008 20.3685 93.3965 20.2383 94.0605 20.2383C94.7637 20.2383 95.3529 20.3685 95.8281 20.6289C96.3034 20.8893 96.694 21.2604 97 21.7422C97.306 22.2174 97.5436 22.7806 97.7129 23.4316C97.8887 24.0762 98.0254 24.7826 98.123 25.5508V26C98.0254 26.7357 97.8789 27.4193 97.6836 28.0508C97.4883 28.6823 97.2311 29.2357 96.9121 29.7109C96.5931 30.1797 96.196 30.5443 95.7207 30.8047C95.252 31.0651 94.6921 31.1953 94.041 31.1953C93.39 31.1953 92.8008 31.0618 92.2734 30.7949C91.7526 30.528 91.3066 30.1536 90.9355 29.6719C90.5645 29.1901 90.278 28.6237 90.0762 27.9727C89.8809 27.3216 89.7832 26.612 89.7832 25.8438ZM92.5957 25.6387V25.8438C92.5957 26.2799 92.638 26.6868 92.7227 27.0645C92.8073 27.4421 92.9375 27.7773 93.1133 28.0703C93.2956 28.3568 93.5202 28.5814 93.7871 28.7441C94.0605 28.9004 94.3828 28.9785 94.7539 28.9785C95.2682 28.9785 95.6882 28.8711 96.0137 28.6562C96.3392 28.4349 96.5833 28.1322 96.7461 27.748C96.9089 27.3639 97.0033 26.9212 97.0293 26.4199V25.1406C97.0163 24.7305 96.9609 24.3626 96.8633 24.0371C96.7656 23.7051 96.6289 23.4219 96.4531 23.1875C96.2773 22.9531 96.0495 22.7708 95.7695 22.6406C95.4896 22.5104 95.1576 22.4453 94.7734 22.4453C94.4023 22.4453 94.0801 22.5299 93.8066 22.6992C93.5397 22.862 93.3151 23.0866 93.1328 23.373C92.957 23.6595 92.8236 23.998 92.7324 24.3887C92.6413 24.7728 92.5957 25.1895 92.5957 25.6387ZM101.18 25.8242V25.6191C101.18 24.8444 101.29 24.1315 101.512 23.4805C101.733 22.8229 102.055 22.2533 102.479 21.7715C102.902 21.2897 103.423 20.9154 104.041 20.6484C104.66 20.375 105.369 20.2383 106.17 20.2383C106.971 20.2383 107.684 20.375 108.309 20.6484C108.934 20.9154 109.458 21.2897 109.881 21.7715C110.311 22.2533 110.636 22.8229 110.857 23.4805C111.079 24.1315 111.189 24.8444 111.189 25.6191V25.8242C111.189 26.5924 111.079 27.3053 110.857 27.9629C110.636 28.6139 110.311 29.1836 109.881 29.6719C109.458 30.1536 108.937 30.528 108.318 30.7949C107.7 31.0618 106.99 31.1953 106.189 31.1953C105.389 31.1953 104.676 31.0618 104.051 30.7949C103.432 30.528 102.908 30.1536 102.479 29.6719C102.055 29.1836 101.733 28.6139 101.512 27.9629C101.29 27.3053 101.18 26.5924 101.18 25.8242ZM103.992 25.6191V25.8242C103.992 26.2669 104.031 26.6803 104.109 27.0645C104.188 27.4486 104.311 27.7871 104.48 28.0801C104.656 28.3665 104.884 28.5911 105.164 28.7539C105.444 28.9167 105.786 28.998 106.189 28.998C106.58 28.998 106.915 28.9167 107.195 28.7539C107.475 28.5911 107.7 28.3665 107.869 28.0801C108.038 27.7871 108.162 27.4486 108.24 27.0645C108.325 26.6803 108.367 26.2669 108.367 25.8242V25.6191C108.367 25.1895 108.325 24.7858 108.24 24.4082C108.162 24.0241 108.035 23.6855 107.859 23.3926C107.69 23.0931 107.465 22.8587 107.186 22.6895C106.906 22.5202 106.567 22.4355 106.17 22.4355C105.773 22.4355 105.434 22.5202 105.154 22.6895C104.881 22.8587 104.656 23.0931 104.48 23.3926C104.311 23.6855 104.188 24.0241 104.109 24.4082C104.031 24.7858 103.992 25.1895 103.992 25.6191ZM119.168 28.4707V20.4336H121.98V31H119.334L119.168 28.4707ZM119.48 26.3027L120.311 26.2832C120.311 26.9863 120.229 27.6406 120.066 28.2461C119.904 28.8451 119.66 29.3659 119.334 29.8086C119.008 30.2448 118.598 30.5866 118.104 30.834C117.609 31.0749 117.026 31.1953 116.355 31.1953C115.841 31.1953 115.366 31.1237 114.93 30.9805C114.5 30.8307 114.129 30.5996 113.816 30.2871C113.51 29.9681 113.27 29.5612 113.094 29.0664C112.924 28.5651 112.84 27.9629 112.84 27.2598V20.4336H115.652V27.2793C115.652 27.5918 115.688 27.8555 115.76 28.0703C115.838 28.2852 115.945 28.4609 116.082 28.5977C116.219 28.7344 116.378 28.832 116.561 28.8906C116.749 28.9492 116.958 28.9785 117.186 28.9785C117.765 28.9785 118.221 28.8613 118.553 28.627C118.891 28.3926 119.129 28.0736 119.266 27.6699C119.409 27.2598 119.48 26.804 119.48 26.3027ZM129.305 20.4336V22.4258H123.152V20.4336H129.305ZM124.676 17.8262H127.488V27.8164C127.488 28.1224 127.527 28.3568 127.605 28.5195C127.69 28.6823 127.814 28.7962 127.977 28.8613C128.139 28.9199 128.344 28.9492 128.592 28.9492C128.768 28.9492 128.924 28.9427 129.061 28.9297C129.204 28.9102 129.324 28.8906 129.422 28.8711L129.432 30.9414C129.191 31.0195 128.93 31.0814 128.65 31.127C128.37 31.1725 128.061 31.1953 127.723 31.1953C127.104 31.1953 126.564 31.0944 126.102 30.8926C125.646 30.6842 125.294 30.3522 125.047 29.8965C124.799 29.4408 124.676 28.8418 124.676 28.0996V17.8262Z" fill="white"/>
<rect width="60" height="48" rx="8" fill="#935722"/>
<path d="M40.3333 30.25L47 23.5M47 23.5L40.3333 16.75M47 23.5H23.6666M33.6666 30.25V31.9375C33.6666 33.2802 33.1399 34.5678 32.2022 35.5172C31.2645 36.4666 29.9927 37 28.6666 37H22C20.6739 37 19.4021 36.4666 18.4644 35.5172C17.5268 34.5678 17 33.2802 17 31.9375V15.0625C17 13.7198 17.5268 12.4322 18.4644 11.4828C19.4021 10.5334 20.6739 10 22 10H28.6666C29.9927 10 31.2645 10.5334 32.2022 11.4828C33.1399 12.4322 33.6666 13.7198 33.6666 15.0625V16.75" stroke="white" stroke-width="2" stroke-linecap="round" stroke-linejoin="round"/>
</svg>
