<svg width="136" height="127" viewBox="0 0 136 127" fill="none" xmlns="http://www.w3.org/2000/svg">
<ellipse cx="98.25" cy="68.3502" rx="3.25" ry="3.15" fill="#B2722A"/>
<path d="M101.5 107.152C75.5 91 63 70.4999 9.78874 81.1961C1.22816 82.9169 11.6289 59.3076 16.9769 61.6311C22.3249 63.9546 22.9854 67.3482 16.9768 48.4697C10.9681 29.5913 29.5711 29.1658 42.6405 36.5271C55.71 43.8884 50.1819 32.5115 69.6613 23.3983C89.1408 14.285 85.0945 21.876 114.468 38.191C143.842 54.5061 116.762 47.9761 104.939 61.6313C93.1155 75.2866 129.029 76.1183 122.279 97.6807C115.691 118.725 114.687 115.344 101.5 107.152Z" fill="#8FAD88" stroke="#8FAD88"/>
<ellipse cx="38" cy="56" rx="33" ry="32" fill="#B3722A"/>
<g filter="url(#filter0_d_708_10)">
<path d="M32.4872 103V66.6364H37.9737V98.277H54.451V103H32.4872ZM68.288 103.55C65.601 103.55 63.2868 102.976 61.3455 101.828C59.4161 100.668 57.9246 99.0405 56.8711 96.9453C55.8294 94.8383 55.3086 92.3703 55.3086 89.5412C55.3086 86.7476 55.8294 84.2855 56.8711 82.1548C57.9246 80.0241 59.3924 78.361 61.2745 77.1655C63.1684 75.9699 65.382 75.3722 67.9151 75.3722C69.454 75.3722 70.9454 75.6267 72.3896 76.1357C73.8337 76.6446 75.1299 77.4437 76.2781 78.5327C77.4263 79.6217 78.3318 81.0362 78.9947 82.7763C79.6576 84.5045 79.989 86.6056 79.989 89.0795V90.9616H58.3093V86.9844H74.7866C74.7866 85.5876 74.5025 84.3506 73.9343 83.2734C73.3661 82.1844 72.5671 81.3262 71.5373 80.6989C70.5193 80.0715 69.3237 79.7578 67.9506 79.7578C66.4592 79.7578 65.1571 80.1248 64.0444 80.8587C62.9435 81.5807 62.0913 82.5277 61.4876 83.6996C60.8957 84.8596 60.5998 86.1203 60.5998 87.4815V90.5888C60.5998 92.4117 60.9194 93.9624 61.5586 95.2408C62.2096 96.5192 63.1152 97.4957 64.2752 98.1705C65.4353 98.8333 66.7906 99.1648 68.3413 99.1648C69.3474 99.1648 70.2648 99.0227 71.0934 98.7386C71.922 98.4427 72.6381 98.0047 73.2418 97.4247C73.8455 96.8447 74.3072 96.1286 74.6268 95.2763L79.6516 96.1818C79.2492 97.6615 78.5271 98.9576 77.4854 100.07C76.4556 101.171 75.1594 102.029 73.5969 102.645C72.0463 103.249 70.2766 103.55 68.288 103.55ZM82.1294 103V75.7273H87.2608V80.0597H87.5449C88.0421 78.5919 88.918 77.4377 90.1728 76.5973C91.4393 75.745 92.8716 75.3189 94.4696 75.3189C94.8011 75.3189 95.1917 75.3307 95.6415 75.3544C96.1032 75.3781 96.4642 75.4077 96.7246 75.4432V80.5213C96.5115 80.4621 96.1328 80.397 95.5882 80.326C95.0437 80.2431 94.4992 80.2017 93.9547 80.2017C92.7 80.2017 91.5814 80.468 90.5989 81.0007C89.6283 81.5215 88.8588 82.2495 88.2907 83.1847C87.7225 84.108 87.4384 85.1615 87.4384 86.3452V103H82.1294ZM97.5689 103V75.7273H102.878V103H97.5689ZM100.25 71.5192C99.3267 71.5192 98.5336 71.2114 97.8707 70.5959C97.2197 69.9685 96.8942 69.2228 96.8942 68.3587C96.8942 67.4827 97.2197 66.737 97.8707 66.1214C98.5336 65.4941 99.3267 65.1804 100.25 65.1804C101.173 65.1804 101.96 65.4941 102.612 66.1214C103.274 66.737 103.606 67.4827 103.606 68.3587C103.606 69.2228 103.274 69.9685 102.612 70.5959C101.96 71.2114 101.173 71.5192 100.25 71.5192ZM126.707 82.3857L121.895 83.2379C121.694 82.6224 121.374 82.0365 120.936 81.4801C120.51 80.9238 119.93 80.468 119.196 80.1129C118.462 79.7578 117.545 79.5803 116.444 79.5803C114.941 79.5803 113.686 79.9176 112.68 80.5923C111.674 81.2552 111.171 82.1134 111.171 83.1669C111.171 84.0784 111.508 84.8123 112.183 85.3686C112.857 85.925 113.946 86.3807 115.45 86.7358L119.782 87.7301C122.292 88.3101 124.162 89.2038 125.393 90.4112C126.624 91.6186 127.24 93.187 127.24 95.1165C127.24 96.75 126.766 98.206 125.819 99.4844C124.884 100.751 123.576 101.745 121.895 102.467C120.226 103.189 118.291 103.55 116.089 103.55C113.035 103.55 110.543 102.899 108.614 101.597C106.684 100.283 105.501 98.419 105.063 96.0043L110.194 95.223C110.514 96.5606 111.171 97.5727 112.165 98.2592C113.159 98.9339 114.455 99.2713 116.053 99.2713C117.794 99.2713 119.184 98.9103 120.226 98.1882C121.268 97.4543 121.789 96.5606 121.789 95.5071C121.789 94.6548 121.469 93.9387 120.83 93.3587C120.202 92.7786 119.238 92.3407 117.936 92.0447L113.319 91.0327C110.774 90.4527 108.892 89.5294 107.673 88.2628C106.465 86.9962 105.862 85.3923 105.862 83.451C105.862 81.8411 106.311 80.4325 107.211 79.2251C108.111 78.0178 109.354 77.0767 110.94 76.402C112.526 75.7154 114.343 75.3722 116.391 75.3722C119.338 75.3722 121.658 76.0114 123.351 77.2898C125.044 78.5563 126.162 80.255 126.707 82.3857Z" fill="#3F4040"/>
</g>
<g filter="url(#filter1_d_708_10)">
<path d="M70.9746 13.2727H79.5854V39.7216C79.5854 42.6913 78.8761 45.2898 77.4576 47.517C76.0523 49.7443 74.0835 51.4811 71.5513 52.7273C69.0191 53.9602 66.0693 54.5767 62.7019 54.5767C59.3212 54.5767 56.3648 53.9602 53.8326 52.7273C51.3004 51.4811 49.3316 49.7443 47.9263 47.517C46.521 45.2898 45.8184 42.6913 45.8184 39.7216V13.2727H54.4292V38.9858C54.4292 40.5369 54.7672 41.9157 55.4434 43.1222C56.1328 44.3286 57.1006 45.2765 58.3468 45.9659C59.593 46.6553 61.0447 47 62.7019 47C64.3723 47 65.824 46.6553 67.057 45.9659C68.3032 45.2765 69.2644 44.3286 69.9405 43.1222C70.6299 41.9157 70.9746 40.5369 70.9746 38.9858V13.2727ZM88.3038 13.2727L96.5169 27.1534H96.835L105.088 13.2727H114.812L102.383 33.6364L115.091 54H105.187L96.835 40.0994H96.5169L88.1646 54H78.301L91.0481 33.6364L78.5396 13.2727H88.3038Z" fill="#F9F9F9"/>
</g>
<defs>
<filter id="filter0_d_708_10" x="28.4873" y="65.1802" width="102.752" height="46.3701" filterUnits="userSpaceOnUse" color-interpolation-filters="sRGB">
<feFlood flood-opacity="0" result="BackgroundImageFix"/>
<feColorMatrix in="SourceAlpha" type="matrix" values="0 0 0 0 0 0 0 0 0 0 0 0 0 0 0 0 0 0 127 0" result="hardAlpha"/>
<feOffset dy="4"/>
<feGaussianBlur stdDeviation="2"/>
<feComposite in2="hardAlpha" operator="out"/>
<feColorMatrix type="matrix" values="0 0 0 0 0 0 0 0 0 0 0 0 0 0 0 0 0 0 0.25 0"/>
<feBlend mode="normal" in2="BackgroundImageFix" result="effect1_dropShadow_708_10"/>
<feBlend mode="normal" in="SourceGraphic" in2="effect1_dropShadow_708_10" result="shape"/>
</filter>
<filter id="filter1_d_708_10" x="45.8184" y="13.2729" width="78.2725" height="49.3037" filterUnits="userSpaceOnUse" color-interpolation-filters="sRGB">
<feFlood flood-opacity="0" result="BackgroundImageFix"/>
<feColorMatrix in="SourceAlpha" type="matrix" values="0 0 0 0 0 0 0 0 0 0 0 0 0 0 0 0 0 0 127 0" result="hardAlpha"/>
<feOffset dx="5" dy="4"/>
<feGaussianBlur stdDeviation="2"/>
<feComposite in2="hardAlpha" operator="out"/>
<feColorMatrix type="matrix" values="0 0 0 0 0 0 0 0 0 0 0 0 0 0 0 0 0 0 0.25 0"/>
<feBlend mode="normal" in2="BackgroundImageFix" result="effect1_dropShadow_708_10"/>
<feBlend mode="normal" in="SourceGraphic" in2="effect1_dropShadow_708_10" result="shape"/>
</filter>
</defs>
</svg>
